<svg width="32" height="32" viewBox="0 0 32 32" fill="none" xmlns="http://www.w3.org/2000/svg">
<path fill-rule="evenodd" clip-rule="evenodd" d="M9.60072 25.6C7.83445 25.6 6.41699 27.032 6.41699 28.8001C6.41699 30.5665 7.83445 32 9.60072 32C11.3685 32 12.8003 30.5665 12.8003 28.8001C12.8003 27.032 11.3685 25.6 9.60072 25.6ZM25.5989 25.6C23.8326 25.6 22.4152 27.032 22.4152 28.8001C22.4152 30.5665 23.8326 32 25.5989 32C27.3667 32 28.7986 30.5665 28.7986 28.8001C28.7986 27.032 27.3667 25.6 25.5989 25.6ZM3.20128 0H0V3.1984H3.20128L8.95747 15.3392L6.79293 19.2608C6.54335 19.72 6.40096 20.2448 6.40096 20.8C6.40096 22.5664 7.83443 24.0001 9.6006 24.0001H28.7987V20.8H10.2773C10.0566 20.8 9.87898 20.6224 9.87898 20.4001L9.92697 20.2064L11.3637 17.6H23.2809C24.4839 17.6 25.5335 16.936 26.0806 15.9536L31.7984 5.57121C31.9264 5.344 32 5.08 32 4.80001C32 3.91521 31.2833 3.1984 30.3986 3.1984H6.74173L6.0922 1.83201C5.58185 0.748801 4.47796 0 3.20128 0Z" fill="white"/>
</svg>
