<svg width="34" height="34" viewBox="0 0 34 34" fill="none" xmlns="http://www.w3.org/2000/svg">
<g id="icon/action/info_24px 2">
<g id="Vector">
<path d="M15.5833 9.91667H18.4166V12.75H15.5833V9.91667Z" fill="black" fill-opacity="0.54"/>
<path d="M15.5833 15.5833H18.4166V24.0833H15.5833V15.5833Z" fill="black" fill-opacity="0.54"/>
<path fill-rule="evenodd" clip-rule="evenodd" d="M2.83325 17C2.83325 9.18001 9.17989 2.83334 16.9999 2.83334C24.82 2.83334 31.1666 9.18001 31.1666 17C31.1666 24.82 24.82 31.1667 16.9999 31.1667C9.17989 31.1667 2.83325 24.82 2.83325 17ZM5.66659 17C5.66659 23.2475 10.7524 28.3333 16.9999 28.3333C23.2475 28.3333 28.3333 23.2475 28.3333 17C28.3333 10.7525 23.2475 5.66667 16.9999 5.66667C10.7524 5.66667 5.66659 10.7525 5.66659 17Z" fill="black" fill-opacity="0.54"/>
</g>
</g>
</svg>
